<svg width="1920" height="1080" viewBox="0 0 1920 1080" fill="none" xmlns="http://www.w3.org/2000/svg">
<path opacity="0.2" d="M1380.28 -0.5C1705.6 -0.49995 1920.5 273.54 1920.5 540C1920.5 731.116 1825.29 852.54 1781.13 902.508L1779.07 904.833C1750.71 937.466 1707.2 932.667 1685.24 910.794C1673.8 899.396 1671.9 884.361 1673.79 870.417C1675.68 856.475 1681.35 843.544 1685.15 836.229C1769.75 673.289 1747.41 554.973 1687.28 476.246C1627.1 397.47 1529.01 358.241 1461.96 353.659L1461.95 353.658L1461.95 353.657L1462 353.16C1461.95 353.615 1461.95 353.654 1461.95 353.657H1461.94C1461.94 353.657 1461.94 353.657 1461.93 353.656C1461.93 353.655 1461.91 353.654 1461.89 353.652C1461.86 353.649 1461.8 353.644 1461.73 353.638C1461.58 353.624 1461.37 353.605 1461.09 353.581C1460.52 353.533 1459.69 353.465 1458.62 353.388C1456.47 353.233 1453.38 353.041 1449.58 352.89C1441.99 352.586 1431.58 352.444 1420.32 353.091C1409.05 353.737 1396.95 355.171 1385.97 358.016C1374.97 360.862 1365.15 365.109 1358.39 371.348C1345.38 383.373 1340.32 400.225 1341.06 418.074C1341.8 435.928 1348.34 454.744 1358.48 470.611C1372.25 492.176 1395.22 516.28 1421.97 542.858C1448.71 569.422 1479.21 598.442 1507.99 629.803C1565.52 692.511 1616.26 764.706 1616.26 845.64C1616.26 926.524 1582.74 985.253 1536.46 1023.75C1490.2 1062.24 1431.22 1080.5 1380.28 1080.5C1197.32 1080.5 1053.27 996.516 960 878.474C866.73 996.516 722.679 1080.5 539.725 1080.5C488.783 1080.5 429.796 1062.24 383.536 1023.75C337.262 985.253 303.736 926.524 303.736 845.64C303.736 764.706 354.481 692.511 412.015 629.803C440.787 598.442 471.291 569.422 498.029 542.858C524.783 516.28 547.753 492.176 561.523 470.611C571.656 454.744 578.199 435.928 578.94 418.074C579.681 400.225 574.625 383.373 561.605 371.348C554.851 365.109 545.025 360.862 534.033 358.016C523.049 355.171 510.947 353.737 499.684 353.091C488.422 352.444 478.011 352.586 470.416 352.89C466.619 353.041 463.526 353.233 461.384 353.388C460.312 353.465 459.478 353.533 458.913 353.581C458.631 353.605 458.415 353.624 458.27 353.638C458.198 353.644 458.143 353.649 458.106 353.652C458.088 353.654 458.074 353.655 458.065 353.656C458.061 353.657 458.058 353.657 458.056 353.657H458.054C458.053 353.654 458.048 353.615 458.004 353.16L458.053 353.657L458.046 353.658L458.038 353.659C390.995 358.241 292.901 397.47 232.725 476.246C172.587 554.973 150.251 673.289 234.852 836.229C238.649 843.544 244.322 856.475 246.209 870.417C248.096 884.361 246.204 899.396 234.761 910.794C212.8 932.667 169.289 937.466 140.932 904.833L138.868 902.508C94.7116 852.54 -0.50005 731.116 -0.500061 540C-0.500034 273.54 214.401 -0.49995 539.725 -0.5C715.652 -0.49999 863.578 82.7553 960 203.76C1056.42 82.7553 1204.35 -0.49999 1380.28 -0.5ZM539.725 0.5C215.023 0.50005 0.499966 274.02 0.499939 540C0.49995 730.759 95.5282 851.954 139.618 901.846L141.679 904.167L141.683 904.172C169.626 936.333 212.465 931.59 234.055 910.086C245.191 898.994 247.084 884.329 245.219 870.551C243.353 856.77 237.736 843.956 233.964 836.69C149.218 673.471 171.516 554.727 231.931 475.639C292.307 396.601 390.684 357.26 457.97 352.661H457.971C457.98 352.66 457.994 352.659 458.013 352.657C458.05 352.654 458.106 352.648 458.179 352.642C458.325 352.628 458.543 352.608 458.828 352.584C459.398 352.535 460.236 352.468 461.312 352.391C463.464 352.236 466.568 352.043 470.377 351.891C477.994 351.586 488.439 351.443 499.741 352.092C511.042 352.741 523.214 354.181 534.284 357.048C545.346 359.912 555.355 364.212 562.284 370.612C575.573 382.887 580.689 400.056 579.939 418.116C579.19 436.172 572.579 455.157 562.366 471.149C548.527 492.822 525.478 516.999 498.734 543.567C471.976 570.151 441.503 599.142 412.751 630.479C355.236 693.167 304.736 765.114 304.736 845.64C304.736 926.215 338.121 984.667 384.176 1022.98C430.244 1061.31 489.001 1079.5 539.725 1079.5C722.425 1079.5 866.267 995.587 959.363 877.667C923.098 831.595 894.551 780.368 874.43 726.938C847.402 760.514 813.933 793.814 772.824 826.054C728.358 860.926 661.219 895.396 595.547 911.553C529.908 927.701 465.541 925.596 426.825 887.034C407.446 867.733 400.408 844.01 402.707 817.363C405.004 790.739 416.622 761.194 434.538 730.179C470.372 668.147 531.497 600.081 594.121 537.486C667.08 464.562 701.558 435.451 741.81 373.946C761.854 343.321 761.846 308.284 746.745 280.906C731.647 253.533 701.438 233.78 660.996 233.78C606.106 233.78 555.304 244.163 501.574 254.561C447.854 264.956 391.226 275.36 324.759 275.36C291.965 275.36 270.212 262.205 260.648 244.043C251.086 225.883 253.784 202.855 269.611 183.285C277.525 173.501 293.456 160.317 315.889 146.545C338.331 132.766 367.313 118.378 401.355 106.197C469.44 81.8358 557.79 66.2946 654.581 82.127C798.959 105.743 880.239 187.148 923.057 255.94C934.167 238.195 946.287 221.029 959.361 204.561C863.118 83.6825 715.404 0.50001 539.725 0.5ZM1380.28 0.5C1204.6 0.50001 1056.88 83.6822 960.638 204.561C973.712 221.029 985.832 238.195 996.942 255.94C1039.76 187.148 1121.04 105.743 1265.42 82.127C1362.21 66.2946 1450.56 81.8358 1518.64 106.197C1552.69 118.378 1581.67 132.766 1604.11 146.545C1626.54 160.317 1642.47 173.501 1650.39 183.285C1666.22 202.855 1668.91 225.883 1659.35 244.043C1649.79 262.205 1628.03 275.36 1595.24 275.36C1528.77 275.36 1472.15 264.956 1418.43 254.561C1454.46 925.596 1390.09 927.701 1324.45 911.553C1258.78 895.396 1191.64 860.926 1147.18 826.054C1106.07 793.814 1072.6 760.514 1045.57 726.938C1025.45 780.368 996.901 831.595 960.636 877.667C1053.73 995.588 1197.57 1079.5 1380.28 1079.5C1431 1079.5 1489.76 1061.31 1535.82 1022.98C1581.88 984.667 1615.26 926.215 1615.26 845.64C1615.26 765.114 1564.76 693.167 1507.25 630.479C1478.5 599.142 1448.02 570.151 1421.27 543.567C1394.52 516.999 1371.47 492.822 1357.63 471.149C1347.42 455.157 1340.81 436.172 1340.06 418.116C1339.31 400.056 1344.43 382.887 1357.72 370.612C1364.64 364.212 1374.65 359.912 1385.72 357.048C1396.79 354.181 1408.96 352.741 1420.26 352.092C1431.56 351.443 1442.01 351.586 1449.62 351.891C1453.43 352.043 1456.54 352.236 1458.69 352.391C1459.76 352.468 1460.6 352.535 1461.17 352.584C1461.46 352.608 1461.67 352.628 1461.82 352.642C1461.89 352.648 1461.95 352.654 1461.99 352.657C1462.01 352.659 1462.02 352.66 1462.03 352.661H1462.03C1529.32 357.26 1627.69 396.601 1688.07 475.639C1748.48 554.727 1770.78 673.471 1686.04 836.69C1682.26 843.956 1676.65 856.77 1674.78 870.551C1672.92 884.329 1674.81 898.994 1685.95 910.086C1707.54 931.59 1750.37 936.333 1778.32 904.172L1778.32 904.167L1780.38 901.846C1824.47 851.954 1919.5 730.759 1919.5 540C1919.5 274.02 1704.98 0.50005 1380.28 0.5ZM654.42 83.1133C557.828 67.3136 469.651 82.8223 401.692 107.139C367.714 119.297 338.794 133.655 316.411 147.397C294.018 161.146 278.198 174.259 270.389 183.914C254.77 203.225 252.186 225.827 261.533 243.577C270.879 261.325 292.23 274.36 324.759 274.36C391.122 274.36 447.667 263.974 501.384 253.579C555.09 243.186 605.991 232.78 660.996 232.78C701.786 232.78 732.339 252.717 747.621 280.424C762.901 308.126 762.893 343.56 742.647 374.494C702.322 436.11 667.739 465.317 594.828 538.193C532.212 600.779 471.168 668.768 435.404 730.679C417.522 761.635 405.983 791.032 403.703 817.449C401.425 843.844 408.39 867.262 427.53 886.326C465.853 924.496 529.744 926.711 595.309 910.581C660.839 894.46 727.849 860.054 772.207 825.267C813.443 792.927 846.976 759.523 874.022 725.846C851.35 665.263 839.5 601.881 839.5 540C839.5 440.706 869.329 342.126 922.467 256.882C879.835 188.188 798.734 106.719 654.42 83.1133ZM1518.31 107.139C1450.35 82.8223 1362.17 67.3136 1265.58 83.1133C1121.27 106.719 1040.16 188.188 997.532 256.882C1050.67 342.126 1080.5 440.705 1080.5 540C1080.5 601.881 1068.65 665.263 1045.98 725.846C1073.02 759.523 1106.56 792.927 1147.79 825.267C1192.15 860.054 1259.16 894.46 1324.69 910.581C1390.26 926.711 1454.15 924.496 1492.47 886.326C1511.61 867.262 1518.57 843.844 1516.3 817.449C1514.02 791.032 1502.48 761.635 1484.6 730.679C1448.83 668.768 1387.79 600.779 1325.17 538.193C1252.26 465.317 1217.68 436.11 1177.35 374.494C1157.11 343.56 1157.1 308.126 1172.38 280.424C1187.66 252.717 1218.21 232.78 1259 232.78C1314.01 232.78 1364.91 243.186 1418.62 253.579C1472.33 263.974 1528.88 274.36 1595.24 274.36C1627.77 274.36 1649.12 261.325 1658.47 243.577C1667.81 225.827 1665.23 203.225 1649.61 183.914C1641.8 174.259 1625.98 161.146 1603.59 147.397C1581.21 133.655 1552.29 119.297 1518.31 107.139ZM960 565.472C944.98 617.538 918.35 672.133 875.156 726.031C895.226 779.495 923.743 830.761 960 876.861C996.257 830.762 1024.77 779.495 1044.84 726.031C1001.65 672.133 975.02 617.538 960 565.472ZM923.052 257.829C870.176 342.818 840.5 441.053 840.5 540C840.5 601.576 852.254 664.64 874.747 724.938C918.058 670.769 944.618 615.913 959.478 563.653C934.687 476.24 942.532 396.081 959.478 338.504C955.505 325.046 951.038 312.831 946.374 302.059V302.058C940.416 288.569 932.74 273.543 923.052 257.829ZM996.947 257.829C987.259 273.543 979.584 288.569 973.626 302.058V302.059C968.962 312.831 964.494 325.046 960.52 338.504C977.467 396.081 985.312 476.24 960.52 563.653C975.381 615.913 1001.94 670.769 1045.25 724.938C1067.74 664.64 1079.5 601.577 1079.5 540C1079.5 441.053 1049.82 342.818 996.947 257.829ZM960 340.282C943.506 397.234 936.01 475.95 960 561.804C983.99 475.95 976.494 397.234 960 340.282ZM960 205.364C946.902 221.877 934.763 239.089 923.643 256.885C933.071 272.132 940.61 286.741 946.527 299.943L947.29 301.658L947.292 301.661C951.8 312.074 956.126 323.827 960 336.743C963.874 323.827 968.2 312.074 972.708 301.661L972.71 301.658L973.473 299.943C979.39 286.742 986.928 272.132 996.356 256.885C985.236 239.089 973.098 221.877 960 205.364Z" fill="#F7F7F7"/>
</svg>
